<?xml version="1.0" encoding="UTF-8"?>
<svg width="732px" height="256px" viewBox="0 0 732 256" version="1.1" xmlns="http://www.w3.org/2000/svg" xmlns:xlink="http://www.w3.org/1999/xlink">
    <!-- Generator: Sketch 48.2 (47327) - http://www.bohemiancoding.com/sketch -->
    <title>Group</title>
    <desc>Created with Sketch.</desc>
    <defs></defs>
    <g id="Desktop-HD" stroke="none" stroke-width="1" fill="none" fill-rule="evenodd" transform="translate(-354.000000, -687.000000)">
        <g id="Group" transform="translate(354.000000, 687.000000)">
            <rect id="Rectangle-5" fill="#E1E1E1" x="0" y="30" width="347" height="10" rx="5"></rect>
            <rect id="Rectangle-5" fill="#189A72" opacity="0.475656703" x="30" y="58" width="195" height="10" rx="5"></rect>
            <rect id="Rectangle-5" fill="#189A72" opacity="0.475656703" x="477" y="166" width="255" height="10" rx="5"></rect>
            <rect id="Rectangle-5" fill="#7FB5DE" x="519" y="87" width="189" height="10" rx="5"></rect>
            <rect id="Rectangle-5" fill="#E1E1E1" x="270" y="58" width="75" height="10" rx="5"></rect>
            <rect id="Rectangle-5" fill="#E1E1E1" x="358" y="115" width="75" height="10" rx="5"></rect>
            <rect id="Rectangle-5" fill="#E1E1E1" x="370" y="58" width="42" height="10" rx="5"></rect>
            <rect id="Rectangle-5" fill="#E1E1E1" x="590" y="218" width="42" height="10" rx="5"></rect>
            <rect id="Rectangle-5" fill="#E1E1E1" x="663" y="115" width="42" height="10" rx="5"></rect>
            <rect id="Rectangle-5" fill="#E1E1E1" x="509" y="246" width="42" height="10" rx="5"></rect>
            <rect id="Rectangle-5" fill="#E1E1E1" x="495" y="115" width="75" height="10" rx="5"></rect>
            <rect id="Rectangle-5" fill="#91CFBC" x="101" y="192" width="75" height="10" rx="5"></rect>
            <rect id="Rectangle-5" fill="#E1E1E1" x="536" y="30" width="75" height="10" rx="5"></rect>
            <rect id="Rectangle-5" fill="#91CFBC" x="596" y="115" width="42" height="10" rx="5"></rect>
            <rect id="Rectangle-5" fill="#91CFBC" x="437" y="246" width="72" height="10" rx="5"></rect>
            <rect id="Rectangle-5" fill="#E1E1E1" x="470" y="58" width="216" height="10" rx="5"></rect>
            <rect id="Rectangle-5" fill="#E1E1E1" x="89" y="87" width="47" height="10" rx="5"></rect>
            <rect id="Rectangle-5" fill="#E1E1E1" x="16" y="192" width="67" height="10" rx="5"></rect>
            <rect id="Rectangle-5" fill="#E1E1E1" x="158" y="87" width="147" height="10" rx="5"></rect>
            <rect id="Rectangle-5" fill="#E1E1E1" x="347" y="87" width="117" height="10" rx="5"></rect>
            <rect id="Rectangle-5" fill="#E1E1E1" x="305" y="141" width="357" height="10" rx="5"></rect>
            <rect id="Rectangle-5" fill="#E1E1E1" x="120" y="115" width="195" height="10" rx="5"></rect>
            <rect id="Rectangle-5" fill="#E1E1E1" x="342" y="166" width="75" height="10" rx="5"></rect>
            <rect id="Rectangle-5" fill="#E1E1E1" x="240" y="166" width="75" height="10" rx="5"></rect>
            <rect id="Rectangle-5" fill="#7FB5DE" x="155" y="166" width="42" height="10" rx="5"></rect>
            <rect id="Rectangle-5" fill="#E1E1E1" x="36" y="140" width="195" height="10" rx="5"></rect>
            <rect id="Rectangle-5" fill="#E1E1E1" x="400" y="4" width="42" height="10" rx="5"></rect>
            <rect id="Rectangle-5" fill="#E1E1E1" x="149" y="4" width="195" height="10" rx="5"></rect>
            <rect id="Rectangle-5" fill="#E1E1E1" x="570" y="246" width="135" height="10" rx="5"></rect>
            <rect id="Rectangle-5" fill="#E1E1E1" x="523" y="0" width="135" height="10" rx="5"></rect>
            <rect id="Rectangle-5" fill="#E1E1E1" x="0" y="218" width="347" height="10" rx="5"></rect>
            <rect id="Rectangle-5" fill="#E1E1E1" x="426" y="218" width="137" height="10" rx="5"></rect>
            <rect id="Rectangle-5" fill="#7FB5DE" x="30" y="246" width="195" height="10" rx="5"></rect>
            <rect id="Rectangle-5" fill="#E1E1E1" x="270" y="246" width="75" height="10" rx="5"></rect>
            <rect id="Rectangle-5" fill="#E1E1E1" x="370" y="246" width="42" height="10" rx="5"></rect>
            <rect id="Rectangle-5" fill="#E1E1E1" x="194" y="192" width="195" height="10" rx="5"></rect>
            <rect id="Rectangle-5" fill="#E1E1E1" x="452" y="192" width="195" height="10" rx="5"></rect>
            <rect id="Rectangle-5" fill="#016DBF" opacity="0.504189312" x="397" y="30" width="75" height="10" rx="5"></rect>
        </g>
    </g>
</svg>