<?xml version="1.0" encoding="UTF-8"?>
<svg width="49px" height="43px" viewBox="0 0 49 43" version="1.1" xmlns="http://www.w3.org/2000/svg" xmlns:xlink="http://www.w3.org/1999/xlink">
    <!-- Generator: Sketch 48.2 (47327) - http://www.bohemiancoding.com/sketch -->
    <title>flaticon1516985153-svg</title>
    <desc>Created with Sketch.</desc>
    <defs></defs>
    <g id="Desktop-HD" stroke="none" stroke-width="1" fill="none" fill-rule="evenodd" transform="translate(-696.000000, -692.000000)">
        <g id="flaticon1516985153-svg" transform="translate(696.000000, 692.000000)" fill-rule="nonzero">
            <path d="M11.8947887,20 L4,28.2932097 L4,42.2862167 C4,42.6802251 4.31631953,43 4.70712265,43 L14.2928773,43 C14.6832091,43 15,42.6802251 15,42.2862167 L15,20.8213266 L12.7890632,20 L11.8947887,20 Z" id="Shape" fill="#003E72"></path>
            <path d="M31.2928773,26 L21.7071227,26 C21.3167909,26 21,26.3295448 21,26.7355911 L21,42.2644089 C21,42.6704552 21.3167909,43 21.7071227,43 L31.2928773,43 C31.6836805,43 32,42.6704552 32,42.2644089 L32,26.7355911 C32,26.3295448 31.6836805,26 31.2928773,26 Z" id="Shape" fill="#003E72"></path>
            <path d="M48.8845033,10.7613763 C48.5182138,10.952738 48.1057256,11.0540749 47.6918231,11.0540749 C47.0902974,11.0540749 46.5033856,10.8419745 46.0418702,10.4554803 L44.3004628,9 L38,15.8720542 L38,41.2929985 C38,41.6832633 38.3167909,42 38.7071227,42 L48.2928773,42 C48.6836805,42 49,41.6832633 49,41.2929985 L49,10.6892621 C48.9604011,10.7128289 48.925045,10.7401663 48.8845033,10.7613763 Z" id="Shape" fill="#003E72"></path>
            <path d="M28.0499426,22.9238249 C28.6051483,23.1243789 29.2263574,22.975519 29.6262607,22.5466495 L44.5930322,6.44346054 L48.0955838,9.33067143 C48.2669016,9.47139424 48.5066495,9.49771994 48.7041746,9.3957677 C48.9016997,9.29333681 49.0176911,9.08560313 48.9977929,8.86590323 L48.2387531,0.494810526 C48.2120605,0.195654889 47.9446494,-0.0250023094 47.6413246,0.00228068475 L39.1530847,0.750409103 C38.9308083,0.770033713 38.7425043,0.919850856 38.6765008,1.12902048 C38.6536908,1.19890323 38.646411,1.26974329 38.6527201,1.33962605 C38.6653385,1.48034886 38.7337685,1.61341329 38.8483039,1.70770714 L42.3566794,4.60018317 L28.1387561,19.8963699 L11.9072418,14.0061151 C11.3646544,13.809869 10.7555783,13.9481985 10.3551896,14.3579221 L0.406137647,24.5689416 C-0.151009265,25.1409272 -0.13256712,26.0503603 0.446904495,26.5993708 C0.729845827,26.8678929 1.09335021,27 1.45588396,27 C1.83831582,27 2.21977703,26.8520975 2.5061156,26.5591643 L11.7956183,17.0244758 L28.0499426,22.9238249 Z" id="Shape" fill="#009234"></path>
        </g>
    </g>
</svg>